<svg xmlns="http://www.w3.org/2000/svg" width="113.076" height="74" viewBox="0 0 113.076 74">
  <g id="Group_659" data-name="Group 659" transform="translate(-1542 -225)">
    <path id="Path_2947" data-name="Path 2947" d="M112.647.751H40.139c-.7,4.236-.543,9.632.435,12.3A35.777,35.777,0,0,1,54.493,4.024,37.035,37.035,0,0,1,71.12,1.663c.094,1.521.246,2.926.254,4.338q.022,28.961.007,57.913a27.647,27.647,0,0,1-.183,4.038,4.075,4.075,0,0,1-1.549,2.866c-1.032.672-2.656.4-3.771.1a7.312,7.312,0,0,1-2.952-1.575,13.983,13.983,0,0,1-3.48-5.373C52.8,47.4,45.953,30.923,39.168,14.411,37.2,9.632,35.2,4.867,33.171,0H25.415c-.572,1.086-1.108,2.013-1.557,2.984-3.512,7.546-7.1,15.056-10.479,22.659-3.86,8.7-7.749,17.4-11.2,26.274A27.758,27.758,0,0,0,0,61.861c0,2.971.529,6.412,2.554,8.712.1.109.194.214.294.317,2.744,2.8,8.013,3.314,11.714,3.049a25.541,25.541,0,0,0,11.658-3.894c4.515-2.838,8.736-6.925,10.942-11.848C29.4,64.329,23.706,66.48,15.371,66.43c-7.93-.058-11.247-3.447-11.1-11.3.1-5.424,1.818-10.464,3.947-15.317,4.9-11.152,10.023-22.2,15.078-33.284.115-.253.485-.391.746-.594.118.2.227.4.336.607,2.256,4.222,4.03,8.746,5.9,13.143q4.435,10.4,8.664,20.9C41.587,47.1,44.2,53.636,46.7,60.211c.823,2.163,1.644,4.33,2.4,6.519.668,1.947,1.325,3.666-1.1,4.406l-3.563,1.082.012.854q5.308,0,10.616,0l10.726-.007,10.726-.007q5.089,0,10.177.012c.6,0,1.191.006,1.786.006.022-.261-.037-.569-.023-.837-6.561-.977-7.046-1.535-7.046-8.321Q81.395,34.954,81.413,6c.007-1.412.159-2.817.254-4.338A37.036,37.036,0,0,1,98.294,4.024a35.777,35.777,0,0,1,13.919,9.023c.978-2.665,1.13-8.06.435-12.3" transform="translate(1542 225)" fill="#ff6a02"/>
  </g>
</svg>
